<svg width="66" height="14" viewBox="0 0 66 14" fill="none" xmlns="http://www.w3.org/2000/svg">
<path d="M3.99 11.18C6.195 11.18 7.53 9.965 7.53 8.3C7.53 6.695 6.135 5.915 5.22 5.84C6.165 5.675 7.38 4.955 7.38 3.515C7.38 1.82 5.91 0.844999 3.99 0.844999C2.445 0.844999 1.29 1.52 0.57 2.39L1.26 3.17C1.995 2.375 2.805 1.955 3.9 1.955C5.115 1.955 6.135 2.555 6.135 3.665C6.135 4.82 5.07 5.315 3.81 5.315C3.405 5.315 2.94 5.315 2.775 5.3V6.44C2.925 6.425 3.39 6.425 3.81 6.425C5.28 6.425 6.3 6.95 6.3 8.195C6.3 9.35 5.415 10.07 3.96 10.07C2.775 10.07 1.755 9.53 1.17 8.75L0.435 9.53C1.05 10.43 2.295 11.18 3.99 11.18ZM16.1318 11V0.994999H15.0368L12.5318 3.575L13.2818 4.34L14.8868 2.645V11H16.1318ZM24.9798 11V9.89H20.0748C22.8648 7.685 24.9348 5.825 24.9348 3.785C24.9348 1.79 23.2398 0.844999 21.5748 0.844999C20.1648 0.844999 18.8598 1.415 18.0948 2.42L18.8598 3.215C19.4448 2.465 20.3748 1.955 21.5748 1.955C22.6098 1.955 23.6598 2.51 23.6598 3.785C23.6598 5.51 21.7098 7.175 18.1098 10.01V11H24.9798ZM33.7982 11V9.89H28.8932C31.6832 7.685 33.7532 5.825 33.7532 3.785C33.7532 1.79 32.0582 0.844999 30.3932 0.844999C28.9832 0.844999 27.6782 1.415 26.9132 2.42L27.6782 3.215C28.2632 2.465 29.1932 1.955 30.3932 1.955C31.4282 1.955 32.4782 2.51 32.4782 3.785C32.4782 5.51 30.5282 7.175 26.9282 10.01V11H33.7982ZM44.9987 3.755H39.9287V11H41.0537V4.745H44.9987V3.755ZM50.0319 11.18C51.9369 11.18 53.2569 9.71 53.2569 7.37C53.2569 5.015 51.9369 3.575 50.0319 3.575C49.0119 3.575 48.1119 4.1 47.5869 4.835V3.755H46.4619V13.76H47.5869V9.905C48.1719 10.715 49.0419 11.18 50.0319 11.18ZM49.7469 10.175C48.8619 10.175 47.9769 9.635 47.5869 9.005V5.735C47.9769 5.105 48.8619 4.58 49.7469 4.58C51.2019 4.58 52.0719 5.765 52.0719 7.37C52.0719 8.975 51.2019 10.175 49.7469 10.175ZM56.1709 11V7.76H59.9509V11H61.0759V3.755H59.9509V6.77H56.1709V3.755H55.0459V11H56.1709ZM63.9223 11.15C64.3723 11.15 64.7473 10.775 64.7473 10.325C64.7473 9.875 64.3723 9.5 63.9223 9.5C63.4723 9.5 63.0973 9.875 63.0973 10.325C63.0973 10.775 63.4723 11.15 63.9223 11.15Z" fill="#E03D3D"/>
<path d="M0 6.005H65.6473V6.755H0V6.005Z" fill="#E03D3D"/>
</svg>
