<svg width="79" height="14" viewBox="0 0 79 14" fill="none" xmlns="http://www.w3.org/2000/svg">
<path d="M7.68 11V9.89H2.775C5.565 7.685 7.635 5.825 7.635 3.785C7.635 1.79 5.94 0.844999 4.275 0.844999C2.865 0.844999 1.56 1.415 0.795 2.42L1.56 3.215C2.145 2.465 3.075 1.955 4.275 1.955C5.31 1.955 6.36 2.51 6.36 3.785C6.36 5.51 4.41 7.175 0.81 10.01V11H7.68ZM13.3334 11.18C15.3434 11.18 16.8884 9.92 16.8884 7.88C16.8884 5.825 15.3734 4.685 13.7084 4.685C12.7034 4.685 11.8484 5.105 11.3684 5.585V2.105H16.2434V0.994999H10.1234V6.395L11.0384 6.71C11.7134 6.05 12.4634 5.765 13.3484 5.765C14.6984 5.765 15.6434 6.605 15.6434 7.925C15.6434 9.14 14.6984 10.07 13.3334 10.07C12.1034 10.07 11.2334 9.59 10.5734 8.75L9.80836 9.575C10.5584 10.565 11.6384 11.18 13.3334 11.18ZM28.0132 11V8.465H29.4232V7.37H28.0132V0.994999H26.3032L22.0132 7.43V8.465H26.7682V11H28.0132ZM26.7682 7.37H23.2582L26.7682 2.15V7.37ZM34.4875 11.18C37.2175 11.18 38.3125 8.435 38.3125 6.005C38.3125 3.56 37.2175 0.844999 34.4875 0.844999C31.7425 0.844999 30.6625 3.56 30.6625 6.005C30.6625 8.435 31.7425 11.18 34.4875 11.18ZM34.4875 10.07C32.5825 10.07 31.9375 8 31.9375 6.005C31.9375 4.01 32.5825 1.955 34.4875 1.955C36.3925 1.955 37.0375 4.01 37.0375 6.005C37.0375 8 36.3925 10.07 34.4875 10.07ZM43.672 11.18C46.402 11.18 47.497 8.435 47.497 6.005C47.497 3.56 46.402 0.844999 43.672 0.844999C40.927 0.844999 39.847 3.56 39.847 6.005C39.847 8.435 40.927 11.18 43.672 11.18ZM43.672 10.07C41.767 10.07 41.122 8 41.122 6.005C41.122 4.01 41.767 1.955 43.672 1.955C45.577 1.955 46.222 4.01 46.222 6.005C46.222 8 45.577 10.07 43.672 10.07ZM58.3288 3.755H53.2588V11H54.3838V4.745H58.3288V3.755ZM63.362 11.18C65.267 11.18 66.587 9.71 66.587 7.37C66.587 5.015 65.267 3.575 63.362 3.575C62.342 3.575 61.442 4.1 60.917 4.835V3.755H59.792V13.76H60.917V9.905C61.502 10.715 62.372 11.18 63.362 11.18ZM63.077 10.175C62.192 10.175 61.307 9.635 60.917 9.005V5.735C61.307 5.105 62.192 4.58 63.077 4.58C64.532 4.58 65.402 5.765 65.402 7.37C65.402 8.975 64.532 10.175 63.077 10.175ZM69.501 11V7.76H73.281V11H74.406V3.755H73.281V6.77H69.501V3.755H68.376V11H69.501ZM77.2523 11.15C77.7023 11.15 78.0773 10.775 78.0773 10.325C78.0773 9.875 77.7023 9.5 77.2523 9.5C76.8023 9.5 76.4273 9.875 76.4273 10.325C76.4273 10.775 76.8023 11.15 77.2523 11.15Z" fill="#E03D3D"/>
<path d="M0 6.005H78.9773V6.755H0V6.005Z" fill="#E03D3D"/>
</svg>
