<svg width="71" height="14" viewBox="0 0 71 14" fill="none" xmlns="http://www.w3.org/2000/svg">
<path d="M4.515 11.18C6.525 11.18 8.07 9.92 8.07 7.88C8.07 5.825 6.555 4.685 4.89 4.685C3.885 4.685 3.03 5.105 2.55 5.585V2.105H7.425V0.994999H1.305V6.395L2.22 6.71C2.895 6.05 3.645 5.765 4.53 5.765C5.88 5.765 6.825 6.605 6.825 7.925C6.825 9.14 5.88 10.07 4.515 10.07C3.285 10.07 2.415 9.59 1.755 8.75L0.99 9.575C1.74 10.565 2.82 11.18 4.515 11.18ZM16.7498 11.165C19.5548 11.165 20.8148 8.705 20.8148 6.005C20.8148 3.275 19.7498 0.83 16.9448 0.83C14.7698 0.83 13.4498 2.375 13.4498 4.1C13.4498 6.23 14.9348 7.295 16.7348 7.295C18.0098 7.295 19.1198 6.425 19.5548 5.735C19.5698 5.87 19.5698 6.005 19.5698 6.14C19.5698 8.03 18.7748 10.055 16.7498 10.055C15.7148 10.055 15.1148 9.635 14.6048 9.035L13.9748 9.965C14.6048 10.685 15.4748 11.165 16.7498 11.165ZM17.0198 6.215C15.7298 6.215 14.7098 5.525 14.7098 4.055C14.7098 3.11 15.4748 1.94 17.0048 1.94C18.7448 1.94 19.4048 3.485 19.5098 4.73C18.9848 5.615 18.0098 6.215 17.0198 6.215ZM26.1971 11.18C28.3871 11.18 29.7071 9.65 29.7071 7.91C29.7071 5.78 28.2371 4.715 26.4371 4.715C25.1471 4.715 24.0371 5.585 23.6021 6.275C23.5871 6.14 23.5871 6.02 23.5871 5.885C23.5871 3.92 24.4721 1.955 26.4071 1.955C27.4571 1.955 28.0421 2.375 28.5521 2.975L29.1821 2.045C28.5671 1.34 27.6971 0.844999 26.4071 0.844999C23.6021 0.844999 22.3421 3.305 22.3421 6.02C22.3421 8.735 23.4071 11.18 26.1971 11.18ZM26.1521 10.07C24.4121 10.07 23.7521 8.54 23.6321 7.295C24.1871 6.41 25.1471 5.795 26.1371 5.795C27.4271 5.795 28.4471 6.485 28.4471 7.955C28.4471 8.915 27.6971 10.07 26.1521 10.07ZM35.0595 11.18C37.2495 11.18 38.5695 9.65 38.5695 7.91C38.5695 5.78 37.0995 4.715 35.2995 4.715C34.0095 4.715 32.8995 5.585 32.4645 6.275C32.4495 6.14 32.4495 6.02 32.4495 5.885C32.4495 3.92 33.3345 1.955 35.2695 1.955C36.3195 1.955 36.9045 2.375 37.4145 2.975L38.0445 2.045C37.4295 1.34 36.5595 0.844999 35.2695 0.844999C32.4645 0.844999 31.2045 3.305 31.2045 6.02C31.2045 8.735 32.2695 11.18 35.0595 11.18ZM35.0145 10.07C33.2745 10.07 32.6145 8.54 32.4945 7.295C33.0495 6.41 34.0095 5.795 34.9995 5.795C36.2895 5.795 37.3095 6.485 37.3095 7.955C37.3095 8.915 36.5595 10.07 35.0145 10.07ZM49.3639 3.755H44.2939V11H45.4189V4.745H49.3639V3.755ZM54.3971 11.18C56.3021 11.18 57.6221 9.71 57.6221 7.37C57.6221 5.015 56.3021 3.575 54.3971 3.575C53.3771 3.575 52.4771 4.1 51.9521 4.835V3.755H50.8271V13.76H51.9521V9.905C52.5371 10.715 53.4071 11.18 54.3971 11.18ZM54.1121 10.175C53.2271 10.175 52.3421 9.635 51.9521 9.005V5.735C52.3421 5.105 53.2271 4.58 54.1121 4.58C55.5671 4.58 56.4371 5.765 56.4371 7.37C56.4371 8.975 55.5671 10.175 54.1121 10.175ZM60.5361 11V7.76H64.3161V11H65.4411V3.755H64.3161V6.77H60.5361V3.755H59.4111V11H60.5361ZM68.2875 11.15C68.7375 11.15 69.1125 10.775 69.1125 10.325C69.1125 9.875 68.7375 9.5 68.2875 9.5C67.8375 9.5 67.4625 9.875 67.4625 10.325C67.4625 10.775 67.8375 11.15 68.2875 11.15Z" fill="#E03D3D"/>
<path d="M0 6.005H70.0125V6.755H0V6.005Z" fill="#E03D3D"/>
</svg>
